<svg width="20" height="22" viewBox="0 0 20 22" fill="none" xmlns="http://www.w3.org/2000/svg">
<path fill-rule="evenodd" clip-rule="evenodd" d="M9.38606 0.210648C9.74717 -0.0702159 10.2528 -0.0702159 10.6139 0.210648L19.6139 7.21065C19.8575 7.4001 20 7.69141 20 8V19C20 19.7957 19.6839 20.5587 19.1213 21.1213C18.5587 21.6839 17.7957 22 17 22H3C2.20435 22 1.44129 21.6839 0.87868 21.1213C0.31607 20.5587 0 19.7957 0 19V8C0 7.69141 0.142473 7.4001 0.386059 7.21065L9.38606 0.210648ZM2 8.48908V19C2 19.2652 2.10536 19.5196 2.29289 19.7071C2.48043 19.8946 2.73478 20 3 20H17C17.2652 20 17.5196 19.8946 17.7071 19.7071C17.8946 19.5196 18 19.2652 18 19V8.48908L10 2.26686L2 8.48908Z" fill="black"/>
<path fill-rule="evenodd" clip-rule="evenodd" d="M6 11C6 10.4477 6.44772 10 7 10H13C13.5523 10 14 10.4477 14 11V21C14 21.5523 13.5523 22 13 22C12.4477 22 12 21.5523 12 21V12H8V21C8 21.5523 7.55228 22 7 22C6.44772 22 6 21.5523 6 21V11Z" fill="black"/>
</svg>
