<svg width="415" height="317" viewBox="0 0 415 317" fill="none" xmlns="http://www.w3.org/2000/svg">
<g style="mix-blend-mode:luminosity">
<path fill-rule="evenodd" clip-rule="evenodd" d="M134.831 0L211.604 15.3478L270.389 9.26916L286.178 76.3423L415 182.384V247.256H396.348L381.59 216.412L363.141 317H278.124L257.226 286.47L241.151 317H166.697L153.118 200.661L127.9 172.094L73.6709 177.022V227.857L60.1952 254.796H16.333L0 235.205L33.7836 223.287L13.1082 180.232L32.6835 62.8323L134.831 0ZM39.3459 233.318L19.1077 240.458L21.6326 243.486H46.1278L39.3459 233.318ZM55.9984 237.897L62.3561 225.187V178.449L27.3852 183.827L46.5404 223.716L55.9984 237.897ZM25.8483 172.62L42.998 69.7674L129.876 16.3277L124.767 161.022L67.3266 166.242L25.8483 172.62ZM135.978 164.151L162.501 194.197L182.981 211.518L284.326 122.658L275.585 80.7199L261.655 21.5425L211.064 26.7737L141.321 12.8312L135.978 164.151ZM289.927 94.0795L296.749 126.81L250.595 167.277L287.591 226.208L263.142 275.084L284.092 305.69H353.712L373.627 197.111L380.155 168.352L289.927 94.0795ZM389.93 176.399L385.122 197.581L403.479 235.947H403.685V187.721L389.93 176.399ZM251.559 272.95L274.626 226.835L241.98 174.832L183.114 226.446L165.811 211.811L176.768 305.69H234.32L251.559 272.95Z" fill="black" fill-opacity="0.05"/>
</g>
</svg>
