<svg width="21" height="20" viewBox="0 0 21 20" fill="none" xmlns="http://www.w3.org/2000/svg">
<path d="M10.1004 20.0001C9.8004 20.0001 9.5004 20.0001 9.2004 20.0001C3.7004 19.5001 -0.299601 14.6001 0.200399 9.1001C0.600399 4.3001 4.4004 0.500098 9.2004 0.100098C9.6004 0.100098 10.0004 0.300098 10.2004 0.600098C10.4004 0.900098 10.4004 1.4001 10.1004 1.7001C9.1004 3.0001 8.8004 4.6001 9.0004 6.2001C9.2004 7.8001 10.1004 9.2001 11.4004 10.1001C13.5004 11.7001 16.4004 11.7001 18.5004 10.1001C18.8004 9.9001 19.2004 9.8001 19.6004 10.0001C19.9004 10.2001 20.1004 10.6001 20.1004 11.0001C19.9004 13.7001 18.6004 16.1001 16.5004 17.8001C14.6004 19.2001 12.4004 20.0001 10.1004 20.0001ZM7.3004 2.4001C4.4004 3.4001 2.4004 6.0001 2.1004 9.2001C1.7004 13.6001 4.9004 17.5001 9.3004 17.9001C11.4004 18.1001 13.5004 17.5001 15.1004 16.1001C16.2004 15.2001 17.0004 14.0001 17.5004 12.7001C15.0004 13.6001 12.2004 13.2001 10.0004 11.6001C8.3004 10.3001 7.2004 8.5001 6.8004 6.4001C6.7004 5.0001 6.9004 3.7001 7.3004 2.4001Z" fill="black"/>
</svg>
