<svg width="153" height="28" viewBox="0 0 153 28" fill="none" xmlns="http://www.w3.org/2000/svg">
<path d="M61.464 12.672C61.464 13.584 61.576 14.416 61.8 15.168C62.024 15.904 62.344 16.536 62.76 17.064C63.192 17.576 63.712 17.976 64.32 18.264C64.928 18.552 65.616 18.696 66.384 18.696C67.136 18.696 67.816 18.552 68.424 18.264C69.032 17.976 69.544 17.576 69.96 17.064C70.392 16.536 70.72 15.904 70.944 15.168C71.168 14.416 71.28 13.584 71.28 12.672C71.28 11.76 71.168 10.936 70.944 10.2C70.72 9.448 70.392 8.816 69.96 8.304C69.544 7.776 69.032 7.368 68.424 7.08C67.816 6.792 67.136 6.648 66.384 6.648C65.616 6.648 64.928 6.792 64.32 7.08C63.712 7.368 63.192 7.776 62.76 8.304C62.344 8.832 62.024 9.464 61.8 10.2C61.576 10.936 61.464 11.76 61.464 12.672ZM74.448 12.672C74.448 14.096 74.232 15.352 73.8 16.44C73.384 17.528 72.808 18.44 72.072 19.176C71.352 19.896 70.504 20.44 69.528 20.808C68.552 21.176 67.512 21.36 66.408 21.36C65.304 21.36 64.256 21.176 63.264 20.808C62.288 20.44 61.432 19.896 60.696 19.176C59.976 18.44 59.4 17.528 58.968 16.44C58.536 15.352 58.32 14.096 58.32 12.672C58.32 11.248 58.536 10 58.968 8.928C59.4 7.84 59.984 6.928 60.72 6.192C61.472 5.456 62.336 4.904 63.312 4.536C64.288 4.168 65.32 3.984 66.408 3.984C67.496 3.984 68.528 4.168 69.504 4.536C70.48 4.904 71.328 5.456 72.048 6.192C72.784 6.928 73.368 7.84 73.8 8.928C74.232 10 74.448 11.248 74.448 12.672Z" fill="#010000"/>
<path d="M84.9234 11.064C84.6834 10.984 84.3474 10.904 83.9154 10.824C83.4994 10.728 83.0114 10.68 82.4514 10.68C82.1314 10.68 81.7874 10.712 81.4194 10.776C81.0674 10.84 80.8194 10.896 80.6754 10.944V21H77.7714V9.048C78.3314 8.84 79.0274 8.648 79.8594 8.472C80.7074 8.28 81.6434 8.184 82.6674 8.184C82.8594 8.184 83.0834 8.2 83.3394 8.232C83.5954 8.248 83.8514 8.28 84.1074 8.328C84.3634 8.36 84.6114 8.408 84.8514 8.472C85.0914 8.52 85.2834 8.568 85.4274 8.616L84.9234 11.064Z" fill="#010000"/>
<path d="M90.5291 21H87.6251V8.448H90.5291V21ZM90.8411 4.776C90.8411 5.32 90.6651 5.752 90.3131 6.072C89.9611 6.392 89.5451 6.552 89.0651 6.552C88.5691 6.552 88.1451 6.392 87.7931 6.072C87.4411 5.752 87.2651 5.32 87.2651 4.776C87.2651 4.216 87.4411 3.776 87.7931 3.456C88.1451 3.136 88.5691 2.976 89.0651 2.976C89.5451 2.976 89.9611 3.136 90.3131 3.456C90.6651 3.776 90.8411 4.216 90.8411 4.776Z" fill="#010000"/>
<path d="M96.6639 14.4C96.6639 15.632 96.9279 16.536 97.4559 17.112C97.9999 17.672 98.6959 17.952 99.5439 17.952C100.008 17.952 100.44 17.888 100.84 17.76C101.256 17.632 101.592 17.48 101.848 17.304V10.8C101.64 10.752 101.384 10.712 101.08 10.68C100.776 10.632 100.392 10.608 99.9279 10.608C98.8719 10.608 98.0639 10.96 97.5039 11.664C96.9439 12.352 96.6639 13.264 96.6639 14.4ZM104.752 19.728C104.752 21.728 104.24 23.192 103.216 24.12C102.208 25.048 100.656 25.512 98.5599 25.512C97.7919 25.512 97.0399 25.448 96.3039 25.32C95.5839 25.192 94.9279 25.024 94.3359 24.816L94.8639 22.344C95.3599 22.552 95.9199 22.72 96.5439 22.848C97.1839 22.976 97.8719 23.04 98.6079 23.04C99.7759 23.04 100.608 22.8 101.104 22.32C101.6 21.84 101.848 21.128 101.848 20.184V19.704C101.56 19.848 101.176 19.992 100.696 20.136C100.232 20.28 99.6959 20.352 99.0879 20.352C98.2879 20.352 97.5519 20.224 96.8799 19.968C96.2239 19.712 95.6559 19.336 95.1759 18.84C94.7119 18.344 94.3439 17.728 94.0719 16.992C93.8159 16.24 93.6879 15.376 93.6879 14.4C93.6879 13.488 93.8239 12.648 94.0959 11.88C94.3839 11.112 94.7919 10.456 95.3199 9.912C95.8639 9.368 96.5199 8.944 97.2879 8.64C98.0559 8.336 98.9279 8.184 99.9039 8.184C100.848 8.184 101.744 8.256 102.592 8.4C103.44 8.544 104.16 8.696 104.752 8.856V19.728Z" fill="#010000"/>
<path d="M113.012 18.96C113.908 18.96 114.588 18.912 115.052 18.816V15.6C114.892 15.552 114.66 15.504 114.356 15.456C114.052 15.408 113.716 15.384 113.348 15.384C113.028 15.384 112.7 15.408 112.364 15.456C112.044 15.504 111.748 15.592 111.476 15.72C111.22 15.848 111.012 16.032 110.852 16.272C110.692 16.496 110.612 16.784 110.612 17.136C110.612 17.824 110.828 18.304 111.26 18.576C111.692 18.832 112.276 18.96 113.012 18.96ZM112.772 8.136C113.732 8.136 114.54 8.256 115.196 8.496C115.852 8.736 116.372 9.072 116.756 9.504C117.156 9.936 117.436 10.464 117.596 11.088C117.772 11.696 117.86 12.368 117.86 13.104V20.712C117.412 20.808 116.732 20.92 115.82 21.048C114.924 21.192 113.908 21.264 112.772 21.264C112.02 21.264 111.332 21.192 110.708 21.048C110.084 20.904 109.548 20.672 109.1 20.352C108.668 20.032 108.324 19.616 108.068 19.104C107.828 18.592 107.708 17.96 107.708 17.208C107.708 16.488 107.844 15.88 108.116 15.384C108.404 14.888 108.788 14.488 109.268 14.184C109.748 13.864 110.3 13.64 110.924 13.512C111.564 13.368 112.228 13.296 112.916 13.296C113.236 13.296 113.572 13.32 113.924 13.368C114.276 13.4 114.652 13.464 115.052 13.56V13.08C115.052 12.744 115.012 12.424 114.932 12.12C114.852 11.816 114.708 11.552 114.5 11.328C114.308 11.088 114.044 10.904 113.708 10.776C113.388 10.648 112.98 10.584 112.484 10.584C111.812 10.584 111.196 10.632 110.636 10.728C110.076 10.824 109.62 10.936 109.268 11.064L108.908 8.712C109.276 8.584 109.812 8.456 110.516 8.328C111.22 8.2 111.972 8.136 112.772 8.136Z" fill="#010000"/>
<path d="M128.719 14.4C128.719 13.088 128.551 12.144 128.215 11.568C127.895 10.976 127.287 10.68 126.391 10.68C126.071 10.68 125.719 10.704 125.335 10.752C124.951 10.8 124.663 10.84 124.471 10.872V21H121.567V8.856C122.127 8.696 122.855 8.544 123.751 8.4C124.663 8.256 125.623 8.184 126.631 8.184C127.495 8.184 128.199 8.296 128.743 8.52C129.303 8.744 129.767 9.04 130.135 9.408C130.311 9.28 130.535 9.144 130.807 9C131.079 8.856 131.383 8.728 131.719 8.616C132.055 8.488 132.407 8.384 132.775 8.304C133.159 8.224 133.543 8.184 133.927 8.184C134.903 8.184 135.703 8.328 136.327 8.616C136.967 8.888 137.463 9.28 137.815 9.792C138.183 10.288 138.431 10.896 138.559 11.616C138.703 12.32 138.775 13.096 138.775 13.944V21H135.871V14.4C135.871 13.088 135.711 12.144 135.391 11.568C135.071 10.976 134.455 10.68 133.543 10.68C133.079 10.68 132.639 10.76 132.223 10.92C131.807 11.064 131.495 11.208 131.287 11.352C131.415 11.752 131.503 12.176 131.551 12.624C131.599 13.072 131.623 13.552 131.623 14.064V21H128.719V14.4Z" fill="#010000"/>
<path d="M145.41 21H142.506V8.448H145.41V21ZM145.722 4.776C145.722 5.32 145.546 5.752 145.194 6.072C144.842 6.392 144.426 6.552 143.946 6.552C143.45 6.552 143.026 6.392 142.674 6.072C142.322 5.752 142.146 5.32 142.146 4.776C142.146 4.216 142.322 3.776 142.674 3.456C143.026 3.136 143.45 2.976 143.946 2.976C144.426 2.976 144.842 3.136 145.194 3.456C145.546 3.776 145.722 4.216 145.722 4.776Z" fill="#010000"/>
<path d="M152.529 19.416C152.529 19.976 152.337 20.432 151.953 20.784C151.585 21.136 151.137 21.312 150.609 21.312C150.065 21.312 149.609 21.136 149.241 20.784C148.873 20.432 148.689 19.976 148.689 19.416C148.689 18.856 148.873 18.4 149.241 18.048C149.609 17.68 150.065 17.496 150.609 17.496C151.137 17.496 151.585 17.68 151.953 18.048C152.337 18.4 152.529 18.856 152.529 19.416Z" fill="#010000"/>
<path d="M99.5496 2.84618V6.46968H101.253V5.88403H100.18V2.84618H99.5496Z" fill="#010000"/>
<path d="M101.891 2.84618V6.25653H103.808V5.68758H102.496V4.68434H103.808V4.12464H102.496V3.41177H103.808V2.84618H101.891Z" fill="#010000"/>
<path d="M105.432 4.85878L105.944 3.61305L106.453 4.85878L107.011 6.25653H107.64L106.265 2.84618H105.617L104.233 6.25653H104.863C104.883 6.20417 105.432 4.85878 105.432 4.85878Z" fill="#010000"/>
<path d="M108.278 2.84703V6.25653H109.118C109.614 6.25653 109.966 6.2296 110.164 6.17323C110.367 6.11432 110.555 6.01251 110.712 5.87367C110.886 5.7239 111.023 5.5371 111.112 5.32758C111.342 4.77392 111.3 4.14789 110.999 3.62872C110.845 3.3704 110.617 3.16172 110.342 3.0313C110.076 2.90929 109.659 2.84618 109.105 2.84618L108.278 2.84703ZM108.916 3.40237H109.215C109.686 3.40237 110.034 3.49998 110.251 3.69015C110.49 3.90219 110.611 4.20342 110.611 4.58459C110.619 4.80337 110.567 5.01962 110.461 5.21315C110.372 5.37302 110.234 5.5026 110.067 5.58254C109.907 5.6549 109.652 5.69192 109.309 5.69192H108.917L108.916 3.40237Z" fill="#010000"/>
<path d="M111.898 2.84618V6.46968H113.814V5.86382H112.503V4.80067H113.814V4.20555H112.503V3.44667H113.814V2.84618H111.898Z" fill="#010000"/>
<path d="M117.851 2.88987C117.682 3.04587 117.585 3.27853 117.584 3.52382C117.589 3.71049 117.645 3.88994 117.746 4.03874C117.855 4.21459 118.102 4.46889 118.483 4.79533C118.629 4.91166 118.763 5.04513 118.884 5.19302C118.944 5.27238 118.978 5.37248 118.982 5.47618C118.979 5.5889 118.93 5.69441 118.848 5.76024C118.757 5.8405 118.643 5.88198 118.528 5.87838C118.302 5.87838 118.106 5.70794 117.93 5.39412L117.433 5.71064C117.537 5.9388 117.689 6.13448 117.878 6.27877C118.069 6.40772 118.29 6.47355 118.514 6.46814C118.79 6.48347 119.061 6.38247 119.274 6.18408C119.461 6.00192 119.567 5.73589 119.562 5.45724C119.562 5.31296 119.533 5.17048 119.476 5.04062C119.405 4.88822 119.31 4.75115 119.195 4.63572L118.731 4.20917C118.554 4.06038 118.386 3.89716 118.231 3.72041L118.161 3.5148C118.164 3.43274 118.201 3.35699 118.261 3.3101C118.332 3.25058 118.418 3.22082 118.506 3.22443C118.69 3.22443 118.869 3.35519 119.042 3.59416L119.475 3.18926C119.34 3.01521 119.179 2.87003 118.999 2.75911C118.848 2.67614 118.682 2.63376 118.514 2.63376C118.272 2.62384 118.035 2.71492 117.851 2.88987Z" fill="#010000"/>
<path d="M121.904 2.63303V6.25652H123.607V5.67168H122.534V2.63303H121.904Z" fill="#010000"/>
<path d="M124.246 2.84618V6.25653H126.162V5.68758H124.851V4.68434H126.162V4.12464H124.851V3.41177H126.162V2.84618H124.246Z" fill="#010000"/>
<path d="M130.876 3.26813C130.58 3.60705 130.415 4.06013 130.42 4.53104C130.419 4.87887 130.504 5.22046 130.667 5.51835C130.828 5.81802 131.06 6.06151 131.339 6.22205C131.639 6.39061 131.972 6.47534 132.308 6.4691C132.614 6.47713 132.918 6.39953 133.191 6.24345C133.444 6.08916 133.655 5.86351 133.802 5.58881C133.956 5.31589 134.038 5.00106 134.039 4.67998C134.039 4.67998 134.039 4.61398 134.039 4.56939H132.327V5.14911H133.386L133.356 5.21511C133.269 5.42292 133.128 5.59773 132.951 5.71813C132.762 5.83051 132.55 5.88581 132.336 5.87867C131.989 5.88848 131.652 5.74846 131.397 5.48892C131.152 5.24722 131.012 4.90028 131.017 4.53728C131.012 4.18499 131.147 3.84875 131.384 3.61418C131.631 3.36178 131.957 3.22622 132.293 3.23603C132.689 3.23781 133.067 3.4144 133.344 3.72567L133.763 3.29132C133.586 3.08619 133.375 2.92119 133.141 2.80703C132.87 2.6893 132.58 2.63044 132.288 2.63311C131.711 2.63311 131.236 2.84449 130.876 3.26813Z" fill="#010000"/>
<path d="M136.417 2.84618V5.05575C136.427 5.22746 136.409 5.40002 136.364 5.56566C136.325 5.66451 136.255 5.74603 136.167 5.79893C136.066 5.86136 135.951 5.89345 135.833 5.88998C135.725 5.89345 135.616 5.8657 135.521 5.80933C135.436 5.75904 135.37 5.68099 135.331 5.58733C135.286 5.44425 135.267 5.29336 135.275 5.14247V2.84618H134.678V4.96123C134.678 5.38441 134.717 5.68879 134.797 5.86223C134.886 6.0452 135.024 6.19696 135.194 6.29582C135.394 6.41549 135.621 6.47533 135.849 6.46925C136.021 6.47272 136.193 6.44237 136.354 6.3782C136.499 6.31663 136.628 6.22037 136.734 6.0981C136.836 5.9871 136.913 5.85356 136.958 5.70614C137.007 5.46159 137.027 5.21098 137.017 4.96036V2.84618H136.417Z" fill="#010000"/>
<path d="M138.084 2.84618V6.25653H139.998V5.68758H138.691V4.68434H140V4.12464H138.691V3.41177H140V2.84618H138.084Z" fill="#010000"/>
<path d="M127.652 4.76449L127.439 4.97764Z" fill="#010000"/>
<path d="M127.788 4.85692L128.299 3.61282L128.808 4.85692L129.365 6.25233H129.994L128.619 2.84618H127.973L126.587 6.25653H127.217C127.24 6.20693 127.788 4.85692 127.788 4.85692Z" fill="#010000"/>
<path d="M114.665 2.63396V6.46966H115.297V4.80485H115.444L116.317 6.46966H117.007L116.103 4.74602L116.156 4.72735C116.364 4.66292 116.549 4.53127 116.686 4.35013C116.806 4.16899 116.868 3.95143 116.86 3.72827C116.865 3.51165 116.81 3.2969 116.703 3.11389C116.603 2.94675 116.458 2.8179 116.288 2.74507C116.113 2.67131 115.813 2.63303 115.395 2.63303L114.665 2.63396ZM115.297 3.26982H115.546C115.688 3.26142 115.829 3.27636 115.966 3.3137L116.164 3.46777L116.238 3.71987C116.248 3.85806 116.19 3.99065 116.086 4.07095C115.989 4.14004 115.822 4.16805 115.576 4.16805H115.297V3.26982Z" fill="#010000"/>
<path fill-rule="evenodd" clip-rule="evenodd" d="M96.8328 2.98941C95.9328 2.34336 94.7127 2.59999 94.1082 3.56227C93.5037 4.52454 93.7439 5.82837 94.6444 6.47395C95.5448 7.12 96.765 6.86336 97.369 5.90109C97.9721 4.93835 97.7323 3.63593 96.8328 2.98941ZM97.1223 5.91141C96.5772 6.77938 95.477 7.01115 94.6643 6.42891C93.8522 5.8462 93.6356 4.66998 94.1806 3.80201C94.7261 2.93405 95.8264 2.70274 96.6386 3.28546C97.4498 3.86864 97.6664 5.04344 97.1223 5.91141Z" fill="#010000"/>
<path fill-rule="evenodd" clip-rule="evenodd" d="M96.4383 3.98266V3.97656C96.4383 3.97656 96.4383 3.96718 96.4383 3.96296C96.4369 3.9578 96.4355 3.9531 96.4332 3.94841L96.5568 3.60404L96.2608 3.85036L95.9049 3.58856L96.0559 4.00471L95.6972 4.27026L95.9788 4.29091C95.7441 4.57194 95.496 4.83984 95.2354 5.09366C94.8339 5.48683 94.4083 5.85138 93.9613 6.18449C93.9725 6.20419 93.9855 6.22296 94.0004 6.23938C94.3465 5.98556 94.8414 5.606 95.2776 5.23348C95.5982 4.96276 95.9026 4.67047 96.1893 4.35894L96.2892 4.6015L96.3514 4.31437L96.9132 4.33595L96.4383 3.98266Z" fill="#010000"/>
<path fill-rule="evenodd" clip-rule="evenodd" d="M95.661 4.1816L95.1085 4.13562L95.0718 3.84379L94.9296 4.12154L94.4678 4.09855L94.7935 4.40492L94.7545 4.48937C94.4162 4.89099 93.7007 5.54407 93 6.07846C93.0177 6.11224 93.0265 6.12772 93.0265 6.12772C93.0265 6.12772 94.1188 5.3686 94.8293 4.67094L94.9803 4.58227L95.1843 4.76009L95.1513 4.48421L95.661 4.1816Z" fill="#010000"/>
<path fill-rule="evenodd" clip-rule="evenodd" d="M96.8031 5.46713L96.3426 5.34186L96.2748 5.02798L96.1642 5.29869L95.6192 5.16826L96.0169 5.59803C95.6875 5.94615 95.0727 6.41392 94.2857 6.89622C94.2922 6.91452 94.3024 6.93141 94.3159 6.94502C94.8771 6.62692 95.418 6.26988 95.936 5.87624L96.1777 5.77068L96.4825 6.09676L96.4058 5.65808L96.8031 5.46713Z" fill="#010000"/>
<path fill-rule="evenodd" clip-rule="evenodd" d="M25.2718 2.27405C19.3375 -1.8483 11.2925 -0.21074 7.30675 5.92938C3.32099 12.0695 4.90488 20.3891 10.8422 24.5084C16.7794 28.6308 24.8245 26.9932 28.8072 20.8531C32.7837 14.71 31.2029 6.3994 25.2718 2.27405ZM27.1804 20.919C23.5868 26.4573 16.3321 27.9362 10.9739 24.221C5.6187 20.5028 4.19105 12.9976 7.78467 7.45918C11.3813 1.92079 18.636 0.444886 23.9912 4.16309C29.3402 7.88428 30.7679 15.3806 27.1804 20.919Z" fill="#010000"/>
<path fill-rule="evenodd" clip-rule="evenodd" d="M22.6707 8.61183C22.6707 8.61183 22.6707 8.58489 22.6707 8.57292C22.6707 8.56094 22.6707 8.51304 22.6707 8.4861C22.6615 8.45317 22.6523 8.42323 22.637 8.39329L23.4519 6.1959L21.5004 7.7676L19.1537 6.09711L20.1493 8.75254L17.7842 10.447L19.6408 10.5787C18.0937 12.3719 16.4577 14.0814 14.739 15.701C12.0921 18.2097 9.28579 20.5358 6.3386 22.6614C6.41212 22.7871 6.4979 22.9069 6.59594 23.0116C8.87833 21.392 12.1411 18.9701 15.0178 16.5931C17.1317 14.8657 19.1384 13.0006 21.0286 11.0128L21.6873 12.5606L22.0978 10.7284L25.8017 10.8661L22.6707 8.61183Z" fill="#010000"/>
<path fill-rule="evenodd" clip-rule="evenodd" d="M17.5453 9.88123L13.9027 9.58784L13.6606 7.72575L12.7232 9.49803L9.67794 9.35134L11.8255 11.3062L11.5682 11.8451C9.33788 14.4077 4.61992 18.575 0 21.9848C0.116418 22.2004 0.174626 22.2992 0.174626 22.2992C0.174626 22.2992 7.37717 17.4553 12.0614 13.0037L13.0571 12.4379L14.402 13.5725L14.1845 11.8122L17.5453 9.88123Z" fill="#010000"/>
<path fill-rule="evenodd" clip-rule="evenodd" d="M25.0757 18.084L22.0396 17.2847L21.5923 15.2819L20.8632 17.0092L17.2696 16.177L19.892 18.9192C17.7199 21.1406 13.6668 24.1253 8.47704 27.2029C8.51993 27.3196 8.58733 27.4274 8.67617 27.5142C12.377 25.4845 15.9431 23.2062 19.359 20.6945L20.9521 20.0209L22.9618 22.1016L22.4563 19.3024L25.0757 18.084Z" fill="#010000"/>
</svg>
